<svg xmlns="http://www.w3.org/2000/svg" viewBox="0 0 534.1 351.05">
    <defs>
        <style>
        .cls-1 {
            fill: #f0f;
            stroke: #000;
            stroke-miterlimit: 10;
            stroke-width: 5px;
        }
        </style>
    </defs>
    <title>Asset 2</title>
    <g id="Layer_2" data-name="Layer 2">
        <g id="Layer_1-2" data-name="Layer 1">
            <path class="cls-1" d="M52.58,129.93c-11.72,11.91-60.68,64-48,117,16.14,67.36,119.87,85.44,169,94,42.89,7.47,98.24,17.12,157-13,15.71-8.05,81.15-41.59,95-103,8.2-36.32-4.91-68,18-89,9.86-9,15.28-5.92,37-18,15.42-8.57,50.12-27.86,51-47,1.47-31.86-89.73-85.71-160-63-46.46,15-43.94,50.62-94,65-47.71,13.7-68.9-13.23-121-5C129.52,72.2,92.77,86.17,52.58,129.93Z" />
        </g>
    </g>
</svg>